# xmcd CD database file
#
# Track frame offsets:
#	150
#	24291
#	49400
#	76980
#	102534
#	131091
#	159603
#	188167
#	216564
#	243462
#	269918
#	282285
#	299145
#
# Disc length: 4504 seconds
#
# Revision: 0
# Processed by: cddbd v1.5.1PL0 Copyright (c) Steve Scherf et al.
# Submitted via: CDex 1.51
#
DISCID=d611960d
DTITLE=Armistead Maupin - Armistead Maupin - Stadtgeschichten CD1
DYEAR=2001
DGENRE=Lesung
TTITLE0=Stadtgeschichten CD1
TTITLE1=Stadtgeschichten CD1
TTITLE2=Stadtgeschichten CD1
TTITLE3=Stadtgeschichten CD1
TTITLE4=Stadtgeschichten CD1
TTITLE5=Stadtgeschichten CD1
TTITLE6=Stadtgeschichten CD1
TTITLE7=Stadtgeschichten CD1
TTITLE8=Stadtgeschichten CD1
TTITLE9=Stadtgeschichten CD1
TTITLE10=Stadtgeschichten CD1
TTITLE11=Stadtgeschichten CD1
TTITLE12=Stadtgeschichten CD1
EXTD=YEAR: 2001
EXTT0=
EXTT1=
EXTT2=
EXTT3=
EXTT4=
EXTT5=
EXTT6=
EXTT7=
EXTT8=
EXTT9=
EXTT10=
EXTT11=
EXTT12=
PLAYORDER=
